<svg xmlns="http://www.w3.org/2000/svg" width="1em" height="1em" viewBox="0 0 48 48"><path fill="none" stroke="currentColor" stroke-linecap="round" stroke-linejoin="round" d="M38.5 5.5h-29a4 4 0 0 0-4 4v29a4 4 0 0 0 4 4h29a4 4 0 0 0 4-4v-29a4 4 0 0 0-4-4"/><path fill="none" stroke="currentColor" stroke-linecap="round" stroke-linejoin="round" d="m5.5 33.467l19.108-3.446c2.244 2.189 2.327 5.334 1.541 8.81c4.991-2.579 6.064-5.518 6.008-10.172L42.5 26.794m-30.084-6.565l5.179 5.484m-1.074-6.196l-3.031 6.907m11.028-1.91l-1.074-6.196l2.029-.352c1.146-.198 2.237.572 2.436 1.721s-.569 2.242-1.715 2.44l-2.029.352m2.029-.351l2.38 1.681m-10.755-4.516l4.105-.712m-.979 6.552l-1.074-6.196m16.309 2.856c.466.43.975.53 1.637.416l.918-.159a1.57 1.57 0 0 0 1.277-1.813v-.007a1.57 1.57 0 0 0-1.814-1.278l-1.012.175a1.57 1.57 0 0 1-1.815-1.279h0a1.574 1.574 0 0 1 1.281-1.819l.913-.158c.662-.115 1.17-.013 1.636.416M8.285 24.136l2.019-.35m1.615 2.911l-3.097.536l-1.074-6.195l3.098-.537m22.634-2.38c.355-.26.316-.68.283-.872l-.088-.507"/><circle cx="33.44" cy="16.742" r=".75" fill="currentColor"/><path fill="none" stroke="currentColor" stroke-linecap="round" stroke-linejoin="round" d="m33.065 20.918l-2.745.476m-.324 2.17l.979-6.551l3.126 5.84"/></svg>